<?xml version="1.0" encoding="UTF-8"?>
<!DOCTYPE svg PUBLIC "-//W3C//DTD SVG 1.1//EN" "http://www.w3.org/Graphics/SVG/1.1/DTD/svg11.dtd">
<!-- Creator: CorelDRAW X8 -->
<svg xmlns="http://www.w3.org/2000/svg" xml:space="preserve" width="60px" height="60px" version="1.1" style="shape-rendering:geometricPrecision; text-rendering:geometricPrecision; image-rendering:optimizeQuality; fill-rule:evenodd; clip-rule:evenodd"
viewBox="0 0 2803 2807"
 xmlns:xlink="http://www.w3.org/1999/xlink">
 <defs>
  <style type="text/css">
   <![CDATA[
    .fil0 {fill:black}
   ]]>
  </style>
 </defs>
 <g id="Слой_x0020_1">
  <metadata id="CorelCorpID_0Corel-Layer"/>
  <g id="phone-call.svg">
   <g>
    <g>
     <path class="fil0" d="M2217 1739c-58,-60 -127,-92 -201,-92 -72,0 -142,32 -202,91l-187 187c-16,-8 -31,-16 -46,-24 -21,-10 -42,-20 -59,-31 -175,-111 -334,-257 -487,-444 -74,-94 -124,-173 -160,-253 48,-44 93,-90 137,-135 17,-16 33,-34 50,-50 124,-125 124,-286 0,-410l-162 -162c-18,-18 -37,-37 -55,-56 -36,-37 -73,-75 -111,-110 -58,-57 -127,-88 -199,-88 -72,0 -142,31 -201,88 -1,0 -1,0 -2,1l-201 203c-76,76 -119,168 -129,275 -14,173 37,335 76,440 96,259 240,499 454,756 259,310 571,555 928,727 136,65 318,141 521,154 13,1 26,1 38,1 137,0 252,-49 342,-147 0,-1 1,-1 2,-3 31,-37 66,-71 104,-107 25,-24 51,-50 77,-76 58,-61 89,-132 89,-205 0,-74 -31,-144 -91,-203l-325 -327zm212 624c-1,0 -1,1 0,0 -23,25 -47,47 -72,72 -39,37 -78,76 -115,119 -60,64 -130,94 -223,94 -9,0 -18,0 -27,-1 -176,-11 -339,-80 -462,-138 -335,-163 -630,-393 -875,-685 -202,-244 -337,-469 -426,-711 -55,-147 -75,-262 -67,-371 6,-69 33,-126 82,-176l202 -202c29,-27 60,-42 90,-42 38,0 68,23 87,42 0,0 1,1 2,2 36,33 70,68 106,106 19,19 38,38 57,57l161 162c63,63 63,121 0,184 -17,17 -33,34 -51,51 -49,51 -97,98 -148,144 -2,1 -3,2 -3,3 -51,51 -42,101 -31,135 0,1 1,3 2,5 42,102 101,198 191,312l1 1c163,201 336,358 526,479 24,15 49,27 73,39 21,11 41,21 58,32 3,1 5,3 7,4 21,10 40,15 59,15 49,0 80,-31 90,-41l203 -203c20,-20 52,-44 89,-44 37,0 67,23 86,43 0,1 0,1 1,1l326 327c61,60 61,122 1,185z"/>
     <path class="fil0" d="M1515 668c155,26 296,99 409,212 113,112 185,254 212,409 7,39 40,66 79,66 5,0 9,0 14,-1 43,-7 72,-49 65,-92 -32,-188 -121,-360 -256,-495 -136,-136 -307,-225 -495,-257 -44,-7 -85,22 -92,65 -8,44 20,86 64,93z"/>
     <path class="fil0" d="M2802 1238c-53,-309 -198,-590 -422,-814 -224,-224 -506,-370 -815,-423 -43,-7 -84,22 -92,65 -7,44 22,85 66,93 276,47 528,178 728,377 200,201 331,452 377,728 7,40 41,67 79,67 5,0 9,-1 14,-1 43,-7 73,-48 65,-92z"/>
    </g>
   </g>
   <g>
   </g>
   <g>
   </g>
   <g>
   </g>
   <g>
   </g>
   <g>
   </g>
   <g>
   </g>
   <g>
   </g>
   <g>
   </g>
   <g>
   </g>
   <g>
   </g>
   <g>
   </g>
   <g>
   </g>
   <g>
   </g>
   <g>
   </g>
   <g>
   </g>
  </g>
 </g>
</svg>
