<?xml version="1.0" encoding="UTF-8"?>
<svg width="200px" height="201px" viewBox="0 0 200 201" version="1.1" xmlns="http://www.w3.org/2000/svg" xmlns:xlink="http://www.w3.org/1999/xlink">
    <!-- Generator: Sketch 40.3 (33839) - http://www.bohemiancoding.com/sketch -->
    <title>Слой_x0020_1</title>
    <desc>Created with Sketch.</desc>
    <defs></defs>
    <g id="Page-1" stroke="none" stroke-width="1" fill="none" fill-rule="evenodd">
        <g id="Слой_x0020_1" fill="#968574">
            <g id="phone-call.svg">
                <g id="Group">
                    <path d="M158.146168,124.064171 C154.010695,119.786096 149.090909,117.504456 143.814617,117.504456 C138.680927,117.504456 133.68984,119.786096 129.411765,123.99287 L116.078431,137.326203 C114.937611,136.755793 113.868093,136.185383 112.798574,135.614973 C111.301248,134.901961 109.803922,134.188948 108.5918,133.404635 C96.114082,125.490196 84.7771836,115.080214 73.8680927,101.746881 C68.5918004,95.0445633 65.026738,89.4117647 62.459893,83.7076649 C65.8823529,80.57041 69.0909091,77.2905526 72.228164,74.0819964 C73.4402852,72.9411765 74.5811052,71.657754 75.7932264,70.516934 C84.6345811,61.6042781 84.6345811,50.1247772 75.7932264,41.2834225 L64.2424242,29.7326203 C62.9590018,28.4491979 61.6042781,27.0944742 60.3208556,25.7397504 C57.7540107,23.1016043 55.1158645,20.3921569 52.4064171,17.8966132 C48.2709447,13.8324421 43.3511586,11.6221034 38.2174688,11.6221034 C33.083779,11.6221034 28.0926916,13.8324421 23.885918,17.8966132 C23.8146168,17.8966132 23.8146168,17.8966132 23.7433155,17.9679144 L9.41176471,32.4420677 C3.99286988,37.8609626 0.926916221,44.4206774 0.213903743,52.0499109 C-0.784313725,64.3850267 2.85204991,75.9358289 5.63279857,83.4224599 C12.4777184,101.889483 22.745098,119.001783 38.0035651,137.326203 C56.4705882,159.42959 78.7165775,176.898396 104.171123,189.16221 C113.868093,193.796791 126.84492,199.215686 141.319073,200.142602 C142.245989,200.213904 143.172906,200.213904 144.02852,200.213904 C153.796791,200.213904 161.996435,196.720143 168.413547,189.73262 C168.413547,189.661319 168.484848,189.661319 168.55615,189.518717 C170.766488,186.88057 173.262032,184.456328 175.97148,181.889483 C177.754011,180.178253 179.607843,178.324421 181.461676,176.470588 C185.597148,172.121212 187.807487,167.058824 187.807487,161.853832 C187.807487,156.57754 185.597148,151.586453 181.319073,147.379679 L158.146168,124.064171 L158.146168,124.064171 Z M173.262032,168.55615 C173.190731,168.55615 173.190731,168.627451 173.262032,168.55615 C171.622103,170.338681 169.910873,171.907308 168.128342,173.68984 C165.347594,176.327986 162.566845,179.108734 159.928699,182.174688 C155.650624,186.737968 150.659537,188.877005 144.02852,188.877005 C143.386809,188.877005 142.745098,188.877005 142.103387,188.805704 C129.554367,188.02139 117.932264,183.101604 109.16221,178.966132 C85.2762923,167.344029 64.2424242,150.944742 46.7736185,130.124777 C32.3707665,112.727273 22.745098,96.684492 16.399287,79.42959 C12.4777184,68.9483066 11.0516934,60.7486631 11.6221034,52.9768271 C12.0499109,48.057041 13.9750446,43.9928699 17.4688057,40.4278075 L31.8716578,26.0249554 C33.9393939,24.0998217 36.1497326,23.030303 38.2887701,23.030303 C40.9982175,23.030303 43.1372549,24.6702317 44.4919786,26.0249554 C44.4919786,26.0249554 44.5632799,26.0962567 44.6345811,26.1675579 C47.201426,28.5204991 49.6256684,31.0160428 52.1925134,33.7254902 C53.5472371,35.0802139 54.9019608,36.4349376 56.2566845,37.7896613 L67.7361854,49.3404635 C72.228164,53.8324421 72.228164,57.9679144 67.7361854,62.459893 C66.5240642,63.6720143 65.3832442,64.8841355 64.0998217,66.0962567 C60.6060606,69.7326203 57.1836007,73.083779 53.5472371,76.3636364 C53.4046346,76.4349376 53.3333333,76.5062389 53.3333333,76.5775401 C49.6969697,80.2139037 50.3386809,83.7789661 51.1229947,86.2032086 C51.1229947,86.2745098 51.1942959,86.4171123 51.2655971,86.5597148 C54.2602496,93.8324421 58.4670232,100.677362 64.8841355,108.805704 L64.9554367,108.877005 C76.5775401,123.208556 88.912656,134.402852 102.459893,143.030303 C104.171123,144.099822 105.953654,144.955437 107.664884,145.811052 C109.16221,146.595365 110.588235,147.308378 111.800357,148.092692 C112.01426,148.163993 112.156863,148.306595 112.299465,148.377897 C113.796791,149.090909 115.151515,149.447415 116.506239,149.447415 C120,149.447415 122.210339,147.237077 122.923351,146.524064 L137.397504,132.049911 C138.823529,130.623886 141.105169,128.912656 143.743316,128.912656 C146.381462,128.912656 148.520499,130.552585 149.875223,131.97861 C149.875223,132.049911 149.875223,132.049911 149.946524,132.049911 L173.190731,155.365419 C177.540107,159.643494 177.540107,164.064171 173.262032,168.55615 L173.262032,168.55615 Z" id="Shape"></path>
                    <path d="M108.092692,47.7005348 C119.144385,49.5543672 129.197861,54.7593583 137.254902,62.8163993 C145.311943,70.802139 150.445633,80.9269162 152.370766,91.9786096 C152.869875,94.7593583 155.222816,96.684492 158.003565,96.684492 C158.360071,96.684492 158.645276,96.684492 159.001783,96.6131907 C162.067736,96.114082 164.135472,93.1194296 163.636364,90.0534759 C161.354724,76.6488414 155.008913,64.3850267 145.383244,54.7593583 C135.686275,45.0623886 123.493761,38.7165775 110.089127,36.4349376 C106.951872,35.9358289 104.02852,38.0035651 103.529412,41.0695187 C102.959002,44.2067736 104.955437,47.201426 108.092692,47.7005348 L108.092692,47.7005348 Z" id="Shape"></path>
                    <path d="M199.857398,88.342246 C196.078431,66.3101604 185.73975,46.2745098 169.768271,30.3030303 C153.796791,14.3315508 133.68984,3.92156863 111.657754,0.142602496 C108.5918,-0.356506239 105.668449,1.71122995 105.098039,4.7771836 C104.59893,7.9144385 106.666667,10.8377897 109.803922,11.4081996 C129.483066,14.7593583 147.45098,24.0998217 161.71123,38.2887701 C175.97148,52.6203209 185.311943,70.516934 188.5918,90.1960784 C189.090909,93.0481283 191.515152,94.973262 194.224599,94.973262 C194.581105,94.973262 194.86631,94.9019608 195.222816,94.9019608 C198.28877,94.402852 200.427807,91.4795009 199.857398,88.342246 L199.857398,88.342246 Z" id="Shape"></path>
                </g>
            </g>
        </g>
    </g>
</svg>