<?xml version="1.0" encoding="UTF-8"?>
<!DOCTYPE svg PUBLIC "-//W3C//DTD SVG 1.1//EN" "http://www.w3.org/Graphics/SVG/1.1/DTD/svg11.dtd">
<!-- Creator: CorelDRAW X8 -->
<svg xmlns="http://www.w3.org/2000/svg" xml:space="preserve" width="172px" height="172px" version="1.1" style="shape-rendering:geometricPrecision; text-rendering:geometricPrecision; image-rendering:optimizeQuality; fill-rule:evenodd; clip-rule:evenodd"
viewBox="0 0 2508 2508"
 xmlns:xlink="http://www.w3.org/1999/xlink">
 <defs>
  <style type="text/css">
   <![CDATA[
    .fil0 {fill:#968574}
   ]]>
  </style>
 </defs>
 <g id="Слой_x0020_1">
  <metadata id="CorelCorpID_0Corel-Layer"/>
  <g id="_2449110799936">
   <path class="fil0" d="M1254 0c692,0 1254,561 1254,1254 0,692 -562,1254 -1254,1254 -693,0 -1254,-562 -1254,-1254 0,-693 561,-1254 1254,-1254zm0 106c634,0 1148,514 1148,1148 0,634 -514,1148 -1148,1148 -634,0 -1148,-514 -1148,-1148 0,-634 514,-1148 1148,-1148z"/>
   <path class="fil0" d="M1008 697l492 0c22,0 40,18 40,40l0 253c0,22 -18,39 -40,39l-89 0 0 147 -315 0 0 -147 -88 0c-22,0 -40,-17 -40,-39l0 -253c0,-22 18,-40 40,-40zm368 1752l0 11 -244 0 0 -11 -73 0c-30,0 -54,-23 -54,-53l0 -115c0,-29 24,-53 54,-53l20 0c-40,-43 -65,-101 -65,-165 0,-75 35,-142 89,-186l301 0c55,44 90,111 90,186 0,64 -25,122 -66,165l21 0c29,0 53,24 53,53l0 115c0,30 -24,53 -53,53l-73 0zm-224 -643l204 0 56 -338 206 0c111,0 202,-90 202,-201l0 0c0,-7 -1,-14 -1,-20l-1130 0c-1,6 -1,13 -1,20l0 0c0,111 91,201 202,201l206 0 56 338z"/>
   <path class="fil0" d="M717 1908c-136,-474 -211,-640 -336,-579 -126,62 -40,223 253,619 -21,13 -29,40 -18,63l0 0c11,24 41,34 64,22l9 -4 25 51c8,15 28,22 43,14l0 0c16,-8 23,-27 15,-43l-25 -51 9 -4c24,-12 34,-41 22,-65l0 0c-11,-23 -38,-33 -61,-23z"/>
   <path class="fil0" d="M362 1374c-316,-931 810,-1304 1416,-921 627,398 570,1460 -192,1965l-74 -26 11 -7c289,-181 500,-461 584,-792 72,-281 47,-597 -115,-844 -65,-98 -148,-181 -247,-243 -157,-100 -349,-143 -534,-140 -259,4 -545,101 -710,310 -159,201 -160,447 -80,681l17 47 -76 -30z"/>
  </g>
 </g>
</svg>
