<?xml version="1.0" encoding="UTF-8"?>
<!DOCTYPE svg PUBLIC "-//W3C//DTD SVG 1.1//EN" "http://www.w3.org/Graphics/SVG/1.1/DTD/svg11.dtd">
<!-- Creator: CorelDRAW X8 -->
<svg xmlns="http://www.w3.org/2000/svg" xml:space="preserve" width="113px" height="54px" version="1.1" style="shape-rendering:geometricPrecision; text-rendering:geometricPrecision; image-rendering:optimizeQuality; fill-rule:evenodd; clip-rule:evenodd"
viewBox="0 0 5450 2601"
 xmlns:xlink="http://www.w3.org/1999/xlink">
 <defs>
  <style type="text/css">
   <![CDATA[
    .fil0 {fill:#2B2A29}
   ]]>
  </style>
 </defs>
 <g id="Слой_x0020_1">
  <metadata id="CorelCorpID_0Corel-Layer"/>
  <path class="fil0" d="M4831 1461l508 20c118,5 193,-263 -45,-263l-302 0c-368,0 -470,-527 -955,-842 -193,-126 -440,-291 -767,-350 -265,-48 -565,-22 -875,15 -395,46 -809,135 -1215,389 -273,172 -524,452 -784,727 -109,115 -238,223 -396,310 299,325 666,536 1034,716 266,130 523,264 798,336 279,72 578,81 858,82 519,4 983,-115 1421,-421 91,-63 203,-110 293,-189 157,-138 291,-324 427,-530zm451 -68c-231,-17 -458,-21 -684,-23 -24,42 -54,97 -88,144 -143,202 -288,350 -389,381 75,-70 319,-365 374,-526 -137,-1 -273,-1 -411,-3 -28,59 -69,147 -113,223 -161,277 -321,489 -429,547 90,-110 400,-583 434,-772 -125,-3 -249,-5 -373,-7 -29,58 -73,151 -118,233 -205,372 -338,670 -445,728 74,-125 403,-776 448,-963 -146,-2 -293,-3 -439,-4 -29,57 -74,155 -122,241 -205,372 -316,552 -424,609 76,-126 392,-683 429,-850 -127,-1 -253,-1 -379,0 -33,52 -95,148 -152,233 -176,264 -429,622 -536,693 76,-128 500,-764 534,-924 -143,1 -286,4 -429,7 -99,153 -406,572 -549,666 75,-124 397,-503 445,-663 -119,4 -238,8 -357,13 -88,132 -247,322 -420,408 99,-92 280,-268 321,-403l-78 4c-70,3 -140,6 -209,8 -77,118 -148,183 -325,271 102,-95 200,-150 223,-269 -182,4 -364,7 -547,21 237,-29 462,-62 700,-87 -37,-132 -149,-228 -259,-343 188,118 269,199 355,333l49 -4c111,-10 223,-19 336,-26 -45,-163 -218,-422 -330,-539 169,158 365,312 439,532 128,-8 256,-15 386,-20 -51,-221 -298,-591 -457,-757 237,222 514,439 609,751 150,-5 301,-8 454,-11 -26,-107 -91,-207 -155,-317 -116,-202 -258,-413 -368,-576 207,249 536,580 642,892 112,-2 226,-2 340,-2 -17,-91 -46,-175 -75,-269 -76,-240 -190,-492 -353,-733 195,223 334,461 440,722 38,93 80,178 108,280 152,0 305,2 460,4 -51,-318 -260,-656 -435,-914 219,249 474,585 558,916l54 1c128,2 257,4 387,7 -57,-261 -256,-460 -403,-679 166,121 407,392 519,681 267,6 539,13 814,28 70,3 79,113 -7,107z"/>
 </g>
</svg>
