<?xml version="1.0" encoding="UTF-8"?>
<svg width="40px" height="20px" viewBox="0 0 40 20" version="1.1" xmlns="http://www.w3.org/2000/svg" xmlns:xlink="http://www.w3.org/1999/xlink">
    <!-- Generator: Sketch 40.3 (33839) - http://www.bohemiancoding.com/sketch -->
    <title>icon_sheet-1</title>
    <desc>Created with Sketch.</desc>
    <defs></defs>
    <g id="Page-1" stroke="none" stroke-width="1" fill="none" fill-rule="evenodd">
        <g id="icon_sheet-1" fill="#968574">
            <g id="Page-1">
                <g id="Слой_x0020_1">
                    <path d="M35.450376,10.7283067 L39.1781324,10.8750688 C40.0440286,10.9117593 40.5943864,8.94514768 38.8479178,8.94514768 L36.6318106,8.94514768 C33.9313888,8.94514768 33.1829022,5.07796734 29.6239222,2.76646486 C28.2076684,1.84186388 26.3951568,0.631076866 23.9955972,0.198128784 C22.0509998,-0.154100165 19.8495689,0.0366905156 17.5747569,0.30820033 C14.6762062,0.645753072 11.6382315,1.29884425 8.65896166,3.16272244 C6.65565952,4.42487616 4.81379564,6.47954504 2.90588882,8.4975234 C2.10603558,9.34140524 1.15942029,10.1339204 0,10.7723354 C2.19409282,13.1572189 4.88717666,14.7055586 7.5875986,16.0264172 C9.53953404,16.9803706 11.4254265,17.9636764 13.4434049,18.4920198 C15.4907356,19.0203632 17.6848285,19.0864062 19.7394973,19.0937443 C23.5479728,19.1230967 26.9528526,18.2498624 30.1669418,16.0044029 C30.8347092,15.5421024 31.6565768,15.1972115 32.317006,14.6175014 C33.4690882,13.6048431 34.452394,12.239956 35.450376,10.7283067 L35.450376,10.7283067 L35.450376,10.7283067 Z M38.7598606,10.2293157 C37.0647588,10.104568 35.3990094,10.0752156 33.740598,10.0605394 C33.5644836,10.3687397 33.3443404,10.7723354 33.094845,11.1172262 C32.0454962,12.599523 30.9814712,13.6855623 30.2403228,13.9130435 C30.7906806,13.3993763 32.5811778,11.2346358 32.9847734,10.0532012 C31.9794534,10.0458631 30.9814712,10.0458631 29.968813,10.0311869 C29.7633462,10.464135 29.462484,11.1098881 29.1396074,11.6675839 C27.9581728,13.7002385 26.7840764,15.2559163 25.9915612,15.6815263 C26.6519904,14.874335 28.9268024,11.4034122 29.176298,10.0165107 C28.259035,9.99449642 27.3491102,9.97982022 26.4391854,9.96514402 C26.2263804,10.390754 25.903504,11.0731976 25.5732894,11.674922 C24.0689782,14.4046964 23.0930104,16.5914511 22.3078334,17.0170611 C22.850853,16.0997982 25.265089,11.3226931 25.5953036,9.9504678 C24.5239406,9.9357916 23.4452394,9.9284535 22.3738764,9.9211154 C22.1610714,10.3393873 21.8308568,11.0585214 21.4786278,11.6895982 C19.9743166,14.4193726 19.1597872,15.7402312 18.3672721,16.158503 C18.9249679,15.233902 21.2438084,11.1465786 21.5153182,9.9211154 C20.5833792,9.91377728 19.6587782,9.91377728 18.7341772,9.9211154 C18.4920198,10.3026968 18.0370574,11.0071547 17.6187855,11.6308934 C16.3272794,13.5681526 14.4707393,16.1951935 13.6855623,16.7161989 C14.2432581,15.7769217 17.3546138,11.1098881 17.6041093,9.9357916 C16.5547606,9.9431297 15.5054119,9.96514402 14.4560631,9.98715832 C13.7295909,11.1098881 11.4767932,14.1845533 10.4274445,14.874335 C10.9778022,13.9644102 13.3406714,11.1832691 13.6929004,10.0091726 C12.8196661,10.038525 11.9464318,10.0678775 11.0731976,10.104568 C10.4274445,11.0731976 9.26068612,12.4674372 7.99119428,13.098514 C8.71766648,12.4234085 10.0458631,11.1319024 10.3467254,10.1412585 L9.77435332,10.1706109 C9.26068612,10.1926252 8.7470189,10.2146395 8.24068978,10.2293157 C7.67565584,11.0952119 7.15465052,11.5721886 5.85580628,12.2179417 C6.6042928,11.5208219 7.3234269,11.1172262 7.49220326,10.2439919 C6.1566685,10.2733443 4.82113374,10.2953586 3.47826086,10.3980921 C5.2173913,10.1852871 6.8684645,9.9431297 8.61493304,9.75967712 C8.34342322,8.79104752 7.52155568,8.08658962 6.71436434,7.24270776 C8.09392772,8.10860392 8.68831408,8.70299028 9.31939094,9.6862961 L9.67895798,9.65694368 C10.4934874,9.58356264 11.315355,9.51751972 12.1445606,9.466153 C11.814346,8.2700422 10.5448542,6.3694735 9.7229866,5.51091542 C10.963126,6.67033572 12.4013942,7.8004036 12.9444139,9.41478628 C13.8836911,9.35608146 14.8229683,9.30471474 15.7769217,9.26802422 C15.4026784,7.64630344 13.5901669,4.93120528 12.4234085,3.71308016 C14.162539,5.34213906 16.1951935,6.93450742 16.8923133,9.2239956 C17.9930288,9.18730508 19.1010824,9.16529078 20.2238122,9.14327646 C20.0330214,8.35809944 19.5560448,7.62428912 19.0864062,6.81709778 C18.2351862,5.33480096 17.1931756,3.7864612 16.3859842,2.5903504 C17.9049716,4.41753806 20.3192074,6.8464502 21.0970464,9.13593836 C21.918914,9.12126216 22.7554578,9.12126216 23.5920014,9.12126216 C23.4672538,8.45349478 23.2544488,7.83709412 23.0416438,7.14731242 C22.4839478,5.38616768 21.6474042,3.5369657 20.4512934,1.76848285 C21.8822234,3.40487984 22.9022198,5.15134838 23.6800588,7.06659328 C23.9589066,7.74903688 24.267107,8.37277564 24.4725738,9.12126216 C25.5879656,9.12126216 26.7106952,9.13593836 27.8481012,9.15061456 C27.473858,6.81709778 25.9401944,4.33681894 24.6560264,2.44358834 C26.263071,4.270776 28.1342872,6.73637864 28.750688,9.16529078 L29.1469456,9.17262888 C30.0862228,9.18730508 31.032838,9.20198128 31.9867914,9.2239956 C31.5685196,7.30875068 30.108237,5.84846818 29.0295358,4.2414236 C30.247661,5.12933406 32.0161438,7.11796 32.8380114,9.2386718 C34.797285,9.28270042 36.793249,9.33406714 38.8112272,9.4441387 C39.3248946,9.466153 39.3909374,10.2733443 38.7598606,10.2293157 L38.7598606,10.2293157 L38.7598606,10.2293157 Z" id="Shape"></path>
                </g>
            </g>
        </g>
    </g>
</svg>