<?xml version="1.0" encoding="UTF-8"?>
<!DOCTYPE svg PUBLIC "-//W3C//DTD SVG 1.1//EN" "http://www.w3.org/Graphics/SVG/1.1/DTD/svg11.dtd">
<!-- Creator: CorelDRAW X8 -->
<svg xmlns="http://www.w3.org/2000/svg" xml:space="preserve" width="172px" height="172px" version="1.1" style="shape-rendering:geometricPrecision; text-rendering:geometricPrecision; image-rendering:optimizeQuality; fill-rule:evenodd; clip-rule:evenodd"
viewBox="0 0 2508 2508"
 xmlns:xlink="http://www.w3.org/1999/xlink">
 <defs>
  <style type="text/css">
   <![CDATA[
    .fil0 {fill:#968574}
   ]]>
  </style>
 </defs>
 <g id="Слой_x0020_1">
  <metadata id="CorelCorpID_0Corel-Layer"/>
  <g id="_2449010940672">
   <path class="fil0" d="M1254 0c692,0 1254,561 1254,1254 0,692 -562,1254 -1254,1254 -693,0 -1254,-562 -1254,-1254 0,-693 561,-1254 1254,-1254zm0 106c634,0 1148,514 1148,1148 0,634 -514,1148 -1148,1148 -634,0 -1148,-514 -1148,-1148 0,-634 514,-1148 1148,-1148z"/>
   <g>
    <rect class="fil0" transform="matrix(0.516967 0.177 -0 0.660574 630.7 918.6)" width="1113" height="1113"/>
    <rect class="fil0" transform="matrix(-0.516967 0.177 -0 0.660574 1877.02 918.6)" width="1113" height="1113"/>
    <rect class="fil0" transform="matrix(0.399081 -0.132111 0.399081 0.132111 694.561 843.324)" width="1410" height="1410"/>
   </g>
  </g>
 </g>
</svg>
