<svg xmlns="http://www.w3.org/2000/svg" width="172" height="172" viewBox="0 0 2508 2508" shape-rendering="geometricPrecision" text-rendering="geometricPrecision" image-rendering="optimizeQuality" fill-rule="evenodd" clip-rule="evenodd"><defs><style>.fil0{fill:#968574}</style></defs><g id="Слой_x0020_1"><g id="_2449004463200"><path class="fil0" d="M1254 0c692 0 1254 561 1254 1254 0 692-562 1254-1254 1254C561 2508 0 1946 0 1254 0 561 561 0 1254 0zm0 106c634 0 1148 514 1148 1148s-514 1148-1148 1148S106 1888 106 1254 620 106 1254 106z"/><path class="fil0" d="M831 1825l-101 140c-23 33-111-3-61-67l63-81c77-99-43-236-26-432 7-78 14-179 67-279 42-81 112-156 187-232 95-96 205-188 358-244 103-37 231-46 359-58 54-5 110-17 166-42 24 149 5 291-24 428-21 98-39 195-77 284-39 90-99 171-157 247-108 140-237 240-411 293-36 11-72 31-112 39-69 14-148 10-231 4zm-113 107c44-66 90-128 137-189 16 3 38 6 57 7 84 3 154-4 184-25-35 6-165 9-219-10 28-36 56-73 85-110 21 4 53 12 83 16 108 15 199 16 236-1-48 1-240-14-297-45 25-34 50-68 76-101 22 4 56 12 87 17 143 22 250 49 288 32-49-5-292-54-352-80 31-40 61-80 91-119 22 4 57 12 90 18 143 22 214 30 252 13-49-6-265-38-317-63 26-34 52-68 79-101 21 2 59 5 94 8 108 8 257 15 298 1-50-6-309-26-360-50 31-38 61-76 92-113 62 5 238 10 294-9-49-5-218 2-271-19l78-93c54 4 138 1 197-27-45 7-130 19-175 1l17-20c16-18 31-36 46-54 48 4 80-1 141-30-47 7-82 22-119 3 39-48 78-96 120-142-57 57-113 111-170 169-27-37-30-87-37-141-8 75-3 114 15 165l-12 12c-26 28-51 56-77 85-34-46-68-147-76-201 8 78 8 163 51 229-29 32-57 65-86 99-48-60-96-204-107-281 10 110 10 230 74 321-33 39-65 79-98 119-23-29-36-68-53-108-29-73-56-155-77-219 23 108 43 265 105 359-24 30-48 60-72 91-21-24-37-49-56-77-49-70-92-154-123-248 19 99 54 186 101 269 17 30 32 59 53 88-32 41-63 82-95 124-75-80-121-207-154-308 21 111 57 250 129 341l-11 15c-26 35-53 70-79 105-58-70-70-164-98-250-3 70 20 191 74 282-54 73-109 147-163 224-14 20 14 45 30 21z"/></g></g></svg>