<svg xmlns="http://www.w3.org/2000/svg" width="172" height="172" viewBox="0 0 2508 2508" shape-rendering="geometricPrecision" text-rendering="geometricPrecision" image-rendering="optimizeQuality" fill-rule="evenodd" clip-rule="evenodd"><defs><style>.fil0{fill:#968574}</style></defs><g id="Слой_x0020_1"><g id="_2449004463392"><path class="fil0" d="M1254 0c692 0 1254 561 1254 1254 0 692-562 1254-1254 1254C561 2508 0 1946 0 1254 0 561 561 0 1254 0zm0 106c634 0 1148 514 1148 1148s-514 1148-1148 1148S106 1888 106 1254 620 106 1254 106z"/><path id="XMLID_957_" class="fil0" d="M2025 1492c-54-35-129-66-225-92-189-52-439-81-704-81-212 0-414 18-585 52-26 6-44 28-44 53v437c0 25 18 48 44 53 171 34 373 52 585 52 265 0 515-28 704-81 96-26 171-57 225-92 67-44 101-95 101-150 0-56-34-107-101-151zm-1097-61v423c-37-2-73-4-109-7v-409c36-3 72-5 109-7zm-353 38c44-8 89-14 136-20v387c-47-6-92-12-136-20v-347zm1197 312c-180 50-420 77-676 77h-60v-430c20-1 40-1 60-1 256 0 496 27 676 77 194 54 246 114 246 139 0 24-52 84-246 138z"/><path id="XMLID_983_" class="fil0" d="M1178 934c6 0 12-1 18-2 155-34 250-104 276-202 11-40 18-75 24-106 17-82 27-127 73-170 24-22 30-57 14-85-16-29-49-42-80-33-81 23-192 76-256 200-26 50-43 93-58 130-21 55-37 94-69 125-26 26-32 67-15 99 15 27 43 44 73 44zm112-228c14-35 29-75 53-120 19-38 45-67 74-89-12 33-19 67-27 105-6 30-13 63-23 100-13 51-68 83-122 103 18-30 31-63 45-99z"/><path id="XMLID_1084_" class="fil0" d="M661 1223c6 0 12 0 18-2 154-34 250-104 276-202 10-40 17-74 24-105 17-83 26-128 73-171 24-22 29-57 13-85-15-28-48-42-79-33-116 33-207 104-257 200-26 50-43 93-57 131-22 54-37 94-69 125-27 25-33 66-15 99 14 27 43 43 73 43zm111-228c14-35 30-75 53-120 20-38 46-67 74-89-11 33-18 68-26 106-6 29-13 63-23 99-13 51-68 84-122 104 17-31 30-64 44-100z"/></g></g></svg>