<svg xmlns="http://www.w3.org/2000/svg" width="172" height="172" viewBox="0 0 2508 2508" shape-rendering="geometricPrecision" text-rendering="geometricPrecision" image-rendering="optimizeQuality" fill-rule="evenodd" clip-rule="evenodd"><defs><style>.fil0{fill:#968574}</style></defs><g id="Слой_x0020_1"><g id="_2449114514864"><path class="fil0" d="M1254 0c692 0 1254 561 1254 1254 0 692-562 1254-1254 1254C561 2508 0 1946 0 1254 0 561 561 0 1254 0zm0 106c634 0 1148 514 1148 1148s-514 1148-1148 1148S106 1888 106 1254 620 106 1254 106z"/><path class="fil0" d="M550 1150l334 192-442 767c-22-21-42-42-62-64l387-671-185-107-341 590c-17-28-33-58-48-88l357-619zm1265-339l334 193-424 735-334-193 424-735zm-401-232l334 193-424 735-334-193 424-735zm-62 1034l334 192-361 626c-23 1-47 2-71 2h-29l344-596-185-107-390 674c-29-6-57-14-86-23l444-768zm-401-232l334 193-451 782c-27-11-54-22-80-34l414-717-185-106-413 715c-24-17-47-34-69-53l450-780zm62-1033l334 193-424 735-334-193 424-735z"/></g></g></svg>