<svg xmlns="http://www.w3.org/2000/svg" width="172" height="172" viewBox="0 0 2508 2508" shape-rendering="geometricPrecision" text-rendering="geometricPrecision" image-rendering="optimizeQuality" fill-rule="evenodd" clip-rule="evenodd"><defs><style>.fil0{fill:#968574}</style></defs><g id="Слой_x0020_1"><g id="_2449110799936"><path class="fil0" d="M1254 0c692 0 1254 561 1254 1254 0 692-562 1254-1254 1254C561 2508 0 1946 0 1254 0 561 561 0 1254 0zm0 106c634 0 1148 514 1148 1148s-514 1148-1148 1148S106 1888 106 1254 620 106 1254 106z"/><path class="fil0" d="M1008 697h492c22 0 40 18 40 40v253c0 22-18 39-40 39h-89v147h-315v-147h-88c-22 0-40-17-40-39V737c0-22 18-40 40-40zm368 1752v11h-244v-11h-73c-30 0-54-23-54-53v-115c0-29 24-53 54-53h20c-40-43-65-101-65-165 0-75 35-142 89-186h301c55 44 90 111 90 186 0 64-25 122-66 165h21c29 0 53 24 53 53v115c0 30-24 53-53 53h-73zm-224-643h204l56-338h206c111 0 202-90 202-201 0-7-1-14-1-20H689c-1 6-1 13-1 20 0 111 91 201 202 201h206l56 338zm-435 102c-136-474-211-640-336-579-126 62-40 223 253 619-21 13-29 40-18 63 11 24 41 34 64 22l9-4 25 51c8 15 28 22 43 14 16-8 23-27 15-43l-25-51 9-4c24-12 34-41 22-65-11-23-38-33-61-23z"/><path class="fil0" d="M362 1374C46 443 1172 70 1778 453c627 398 570 1460-192 1965l-74-26 11-7c289-181 500-461 584-792 72-281 47-597-115-844-65-98-148-181-247-243-157-100-349-143-534-140-259 4-545 101-710 310-159 201-160 447-80 681l17 47-76-30z"/></g></g></svg>