<svg xmlns="http://www.w3.org/2000/svg" width="172" height="172" viewBox="0 0 2508 2508" shape-rendering="geometricPrecision" text-rendering="geometricPrecision" image-rendering="optimizeQuality" fill-rule="evenodd" clip-rule="evenodd"><defs><style>.fil0{fill:#968574}</style></defs><g id="Слой_x0020_1"><g id="_2449005596848"><path class="fil0" d="M1254 0c692 0 1254 561 1254 1254 0 692-562 1254-1254 1254C561 2508 0 1946 0 1254 0 561 561 0 1254 0zm0 106c634 0 1148 514 1148 1148s-514 1148-1148 1148S106 1888 106 1254 620 106 1254 106z"/><path class="fil0" d="M965 361l189 110c68 38 91 125 52 192L372 2107c-24-25-47-51-69-79l817-1415c11-19 4-45-15-56L915 447c-20-11-45-4-56 16L127 1731c-17-41-31-82-44-124L773 413c38-67 125-90 192-52z"/><path class="fil0" d="M587 833l331 191-50 86-330-191zm-83 144l331 191-50 86-330-191zm978-317l190 109c67 39 90 126 51 193L879 2424c-32-11-64-22-95-35l853-1477c11-20 5-45-15-56l-190-110c-19-11-45-4-56 15L522 2240c-27-20-53-41-78-64l846-1465c39-67 125-90 192-51z"/><path class="fil0" d="M1105 1132l330 190-50 87-330-191zm-83 143l330 191-50 86-330-190zm977-316l190 109c67 39 90 125 52 192l-681 1180c-43 11-87 20-131 27l725-1257c12-19 5-44-15-56l-189-109c-20-12-45-5-57 15l-813 1409c-35-5-70-11-104-19l831-1440c39-67 125-90 192-51z"/><path class="fil0" d="M1622 1430l330 191-49 86-331-190zm-83 144l330 191-49 86-331-191z"/></g></g></svg>