<svg width="200" height="201" viewBox="0 0 200 201" xmlns="http://www.w3.org/2000/svg"><title>Слой_x0020_1</title><path d="M158.146 124.064c-4.135-4.278-9.055-6.56-14.331-6.56-5.134 0-10.125 2.282-14.403 6.489l-13.334 13.333c-1.14-.57-2.21-1.14-3.28-1.711-1.497-.713-2.994-1.426-4.206-2.21-12.478-7.915-23.815-18.325-34.724-31.658-5.276-6.702-8.841-12.335-11.408-18.04 3.422-3.137 6.63-6.416 9.768-9.625 1.212-1.14 2.353-2.424 3.565-3.565 8.842-8.913 8.842-20.392 0-29.234l-11.55-11.55c-1.284-1.284-2.639-2.639-3.922-3.993-2.567-2.638-5.205-5.348-7.915-7.843-4.135-4.065-9.055-6.275-14.189-6.275-5.133 0-10.124 2.21-14.331 6.275-.071 0-.071 0-.143.07L9.412 32.443C3.992 37.861.927 44.421.214 52.05c-.998 12.335 2.638 23.886 5.419 31.372 6.845 18.467 17.112 35.58 32.37 53.904 18.468 22.104 40.714 39.572 66.168 51.836 9.697 4.635 22.674 10.054 37.148 10.98.927.072 1.854.072 2.71.072 9.768 0 17.967-3.494 24.385-10.481 0-.072.07-.072.142-.214 2.21-2.638 4.706-5.063 7.415-7.63 1.783-1.71 3.637-3.565 5.49-5.418 4.136-4.35 6.346-9.412 6.346-14.617 0-5.276-2.21-10.268-6.488-14.474l-23.173-23.316zm15.116 44.492c-.071 0-.071.071 0 0-1.64 1.783-3.351 3.351-5.134 5.134-2.78 2.638-5.561 5.419-8.2 8.485-4.277 4.563-9.268 6.702-15.9 6.702-.641 0-1.283 0-1.925-.071-12.549-.785-24.17-5.704-32.94-9.84-23.887-11.622-44.92-28.021-62.39-48.841C32.372 112.727 22.746 96.685 16.4 79.43c-3.921-10.482-5.347-18.681-4.777-26.453.428-4.92 2.353-8.984 5.847-12.55l14.403-14.402c2.067-1.925 4.278-2.995 6.417-2.995 2.71 0 4.848 1.64 6.203 2.995l.143.143c2.566 2.352 4.99 4.848 7.558 7.557l4.064 4.065 11.48 11.55c4.491 4.492 4.491 8.628 0 13.12-1.213 1.212-2.354 2.424-3.637 3.636-3.494 3.637-6.916 6.988-10.553 10.268-.142.07-.214.142-.214.214-3.636 3.636-2.994 7.201-2.21 9.625 0 .072.071.214.143.357 2.994 7.272 7.201 14.117 13.618 22.246l.071.071c11.623 14.332 23.958 25.526 37.505 34.153 1.711 1.07 3.494 1.925 5.205 2.781 1.497.784 2.923 1.497 4.135 2.282.214.071.357.214.5.285 1.497.713 2.852 1.07 4.206 1.07 3.494 0 5.704-2.21 6.417-2.924l14.475-14.474c1.426-1.426 3.707-3.137 6.345-3.137s4.777 1.64 6.132 3.066c0 .07 0 .07.072.07l23.244 23.316c4.35 4.278 4.35 8.7.071 13.191zM108.093 47.7c11.051 1.854 21.105 7.06 29.162 15.116 8.057 7.986 13.19 18.11 15.116 29.163.499 2.78 2.852 4.705 5.633 4.705.356 0 .641 0 .998-.07 3.066-.5 5.133-3.495 4.634-6.56-2.281-13.405-8.627-25.669-18.253-35.295-9.697-9.697-21.89-16.042-35.294-18.324-3.137-.5-6.06 1.569-6.56 4.635-.57 3.137 1.426 6.131 4.564 6.63zm91.764 40.642c-3.779-22.032-14.117-42.067-30.089-58.039-15.971-15.971-36.078-26.381-58.11-30.16-3.066-.5-5.99 1.568-6.56 4.634a5.786 5.786 0 0 0 4.706 6.631c19.68 3.351 37.647 12.692 51.907 26.88 14.26 14.332 23.6 32.229 26.88 51.908.5 2.852 2.924 4.777 5.634 4.777.356 0 .641-.071.998-.071 3.066-.5 5.205-3.422 4.634-6.56z" fill="#968574" fill-rule="evenodd"/></svg>