<svg xmlns="http://www.w3.org/2000/svg" width="172" height="172" viewBox="0 0 2508 2508" shape-rendering="geometricPrecision" text-rendering="geometricPrecision" image-rendering="optimizeQuality" fill-rule="evenodd" clip-rule="evenodd"><defs><style>.fil0{fill:#968574}</style></defs><g id="Слой_x0020_1"><g id="_2449110799488"><path class="fil0" d="M1254 0c692 0 1254 561 1254 1254 0 692-562 1254-1254 1254C561 2508 0 1946 0 1254 0 561 561 0 1254 0zm0 106c634 0 1148 514 1148 1148s-514 1148-1148 1148S106 1888 106 1254 620 106 1254 106z"/><path class="fil0" d="M1574 507l-608 608 391 391 607-608c29-29 29-76 0-105l-286-286c-28-29-75-29-104 0zm-288 500l69-69 178 179-69 69-178-179zm171-170l69-69 178 178-69 69-178-178zm-86 85l69-69 179 178-69 69-179-178zm-448 236l-702 702c93 162 222 300 376 405l717-716-391-391zm333-189l295-296c20-20 53-20 74 0l30 30 26-25c13-14 34-14 47-1l71 72c13 13 13 34 0 47l-26 26 31 30c20 20 20 53 0 73l-296 296c-20 20-53 20-73 0l-179-179c-20-20-20-53 0-73z"/></g></g></svg>