<svg xmlns="http://www.w3.org/2000/svg" width="172" height="172" viewBox="0 0 2508 2508" shape-rendering="geometricPrecision" text-rendering="geometricPrecision" image-rendering="optimizeQuality" fill-rule="evenodd" clip-rule="evenodd"><defs><style>.fil0{fill:#968574}</style></defs><g id="Слой_x0020_1"><g id="_2449004468192"><path class="fil0" d="M1254 0c692 0 1254 561 1254 1254 0 692-562 1254-1254 1254C561 2508 0 1946 0 1254 0 561 561 0 1254 0zm0 106c634 0 1148 514 1148 1148s-514 1148-1148 1148S106 1888 106 1254 620 106 1254 106z"/><path class="fil0" d="M137 870c392 362 618 825 1350 1251 40 23 73 0 40-42l-69-87 20-95-77-18-7-92-72-12-20-114-57-1-23-94-66-7-16-96-67 1-22-97-64-1-16-93c-333-19-475-237-718-550 82 2 160 16 236 43 609 209 746 612 1758 764 39 6 62-17 25-44l-88-67 19-78-86 17-11-86-92 11-13-83-89 17-14-95-72 36-25-97-83 28-20-83-77 31-17-89c-540 127-764-337-1269-443-86 108-153 231-198 365z"/></g></g></svg>