<svg xmlns="http://www.w3.org/2000/svg" width="172" height="172" viewBox="0 0 2508 2508" shape-rendering="geometricPrecision" text-rendering="geometricPrecision" image-rendering="optimizeQuality" fill-rule="evenodd" clip-rule="evenodd"><defs><style>.fil0{fill:#968574}</style></defs><g id="Слой_x0020_1"><g id="_2449010940672"><path class="fil0" d="M1254 0c692 0 1254 561 1254 1254 0 692-562 1254-1254 1254C561 2508 0 1946 0 1254 0 561 561 0 1254 0zm0 106c634 0 1148 514 1148 1148s-514 1148-1148 1148S106 1888 106 1254 620 106 1254 106z"/><path class="fil0" transform="matrix(.51697 .177 0 .66057 630.7 918.6)" d="M0 0h1113v1113H0z"/><path class="fil0" transform="matrix(-.51697 .177 0 .66057 1877.02 918.6)" d="M0 0h1113v1113H0z"/><path class="fil0" transform="matrix(.39908 -.1321 .39908 .1321 694.566 843.31)" d="M0 0h1410v1410H0z"/></g></g></svg>