<svg xmlns="http://www.w3.org/2000/svg" width="172" height="172" viewBox="0 0 2508 2508" shape-rendering="geometricPrecision" text-rendering="geometricPrecision" image-rendering="optimizeQuality" fill-rule="evenodd" clip-rule="evenodd"><defs><style>.str0{stroke:#748187;stroke-width:86.0302}.fil1{fill:none}.fil0{fill:#968574}</style></defs><g id="Слой_x0020_1"><g id="_2449110799520"><path class="fil0" d="M1254 0c692 0 1254 561 1254 1254 0 692-562 1254-1254 1254C561 2508 0 1946 0 1254 0 561 561 0 1254 0zm0 106c634 0 1148 514 1148 1148s-514 1148-1148 1148S106 1888 106 1254 620 106 1254 106z"/><path class="fil0" d="M527 1278c616-250 828-375 727-534s-304-21-793 429c-20-26-58-34-87-16-30 20-40 60-20 90l7 12-65 41c-20 12-26 39-13 59s39 26 59 14l65-41 7 11c20 31 60 40 90 21 29-19 39-56 23-86z"/><path class="fil1 str0" d="M1163 780c502-279 1090 54 949 658-135 580-678 724-1004 551-378-200-330-861 392-823 762 41 691 1121-161 1281"/></g></g></svg>