<svg width="40" height="20" viewBox="0 0 40 20" xmlns="http://www.w3.org/2000/svg"><title>icon_sheet-1</title><path d="M35.45 10.728l3.728.147c.866.037 1.416-1.93-.33-1.93h-2.216c-2.7 0-3.45-3.867-7.008-6.179-1.416-.924-3.229-2.135-5.628-2.568-1.945-.352-4.146-.161-6.421.11-2.899.338-5.937.99-8.916 2.855C6.656 4.425 4.814 6.48 2.906 8.498A11.9 11.9 0 0 1 0 10.772c2.194 2.385 4.887 3.934 7.588 5.254 1.952.954 3.837 1.938 5.855 2.466 2.048.528 4.242.594 6.296.602 3.809.03 7.214-.844 10.428-3.09.668-.462 1.49-.807 2.15-1.386 1.152-1.013 2.135-2.378 3.133-3.89zm3.31-.499c-1.695-.124-3.361-.154-5.02-.168-.176.308-.396.711-.645 1.056-1.05 1.483-2.114 2.569-2.855 2.796.55-.514 2.341-2.678 2.745-3.86-1.006-.007-2.004-.007-3.016-.022-.206.433-.507 1.079-.83 1.637-1.18 2.032-2.355 3.588-3.147 4.014.66-.808 2.935-4.279 3.184-5.665-.917-.023-1.827-.037-2.737-.052-.213.426-.535 1.108-.866 1.71-1.504 2.73-2.48 4.916-3.265 5.342.543-.917 2.957-5.694 3.287-7.067-1.071-.014-2.15-.022-3.221-.029-.213.418-.543 1.138-.895 1.769-1.505 2.73-2.32 4.05-3.112 4.469.558-.925 2.877-5.012 3.148-6.238-.932-.007-1.856-.007-2.78 0a90.33 90.33 0 0 1-1.116 1.71c-1.292 1.937-3.148 4.564-3.933 5.085.557-.94 3.669-5.606 3.918-6.78-1.05.007-2.099.03-3.148.051-.726 1.123-2.98 4.198-4.029 4.887.55-.91 2.914-3.69 3.266-4.865-.873.03-1.747.059-2.62.096-.646.968-1.812 2.362-3.082 2.994.727-.676 2.055-1.967 2.356-2.958l-.573.03c-.513.022-1.027.044-1.533.058-.565.866-1.086 1.343-2.385 1.989.748-.697 1.467-1.1 1.636-1.974-1.335.03-2.67.051-4.014.154 1.74-.213 3.39-.455 5.137-.638-.272-.969-1.093-1.673-1.9-2.517 1.379.866 1.973 1.46 2.604 2.443l.36-.03a96.322 96.322 0 0 1 2.466-.19c-.33-1.196-1.6-3.097-2.422-3.955 1.24 1.16 2.678 2.29 3.221 3.904.94-.059 1.879-.11 2.833-.147-.374-1.622-2.187-4.337-3.354-5.555 1.74 1.63 3.772 3.222 4.47 5.511 1.1-.037 2.208-.059 3.33-.08-.19-.786-.667-1.52-1.137-2.327-.85-1.482-1.893-3.03-2.7-4.227 1.519 1.828 3.933 4.256 4.711 6.546.822-.015 1.658-.015 2.495-.015-.125-.668-.338-1.284-.55-1.974a20.851 20.851 0 0 0-2.59-5.379c1.43 1.637 2.45 3.383 3.228 5.299.279.682.587 1.306.793 2.054 1.115 0 2.238.015 3.375.03-.374-2.334-1.908-4.814-3.192-6.707 1.607 1.827 3.478 4.292 4.095 6.721l.396.008c.94.014 1.886.029 2.84.051-.418-1.915-1.879-3.376-2.957-4.983 1.218.888 2.986 2.877 3.808 4.998 1.96.044 3.955.095 5.973.205.514.022.58.83-.051.785z" fill="#968574" fill-rule="evenodd"/></svg>