<svg xmlns="http://www.w3.org/2000/svg" width="586" height="213" viewBox="0 0 85508 31117" shape-rendering="geometricPrecision" text-rendering="geometricPrecision" image-rendering="optimizeQuality" fill-rule="evenodd" clip-rule="evenodd"><defs><style>.fil0,.fil1{fill:#8b0f12}.fil1{fill-rule:nonzero}</style></defs><g id="Слой_x0020_1"><g id="_2449123222512"><path class="fil0" d="M14654 2684c8092 0 14654 6367 14654 14217s-6562 14216-14654 14216S0 24751 0 16901 6562 2684 14654 2684zm-395 6329c-3756 0-6103-87-6866-176-441-29-910-469-998-557-323-264-323-470-470-470-176 0-440 264-440 470 0 1731-557 3311-557 3869 0 293 117 675 293 675 117 0 293 29 558-587 498-969 850-1433 968-1522 440-498 1056-674 2172-674 469 0 3052 58 3639 146 87 0 234 147 234 382v3487c0 2255-147 8232-205 9958-88 2201-147 2695-2201 3165-264 58-558 293-558 498 0 182 294 358 881 358 381 0 1878-211 3345-211 1291 0 3111 152 3346 152 293 0 821-30 821-357 0-206-411-440-792-529-1820-410-1966-762-2113-2078-117-1086-117-3869-117-7268v-7175c0-59 117-352 264-382 352-88 3609-88 4108-58 1819 88 2201 235 2377 1756 88 733 206 939 411 939 235 0 469-294 499-558 176-1521 352-2431 646-3340 146-411 29-676-118-676-117 0-205 59-411 177-411 293-939 469-1995 528-1204 29-5194 58-6721 58z"/><path class="fil1" d="M59149 9882c891 0 1811-1211 3062-3641 791-1481 1741-3408 2359-4702 417-849 604-935 1265-1122 173-57 302-129 302-244s-201-144-359-144c-317 0-935 43-1352 43-489 0-676-29-992-29-230 0-360 58-360 158 0 115 144 216 302 259 719 230 791 360 518 1108-345 877-1395 3163-1985 4227-28 44-115 101-158 44-201-346-2214-4358-2344-4732-86-287-115-489 676-647 158-29 317-129 317-244 0-101-159-173-346-173-330 0-1035 29-1538 29-705 0-1165-72-1453-72-215 0-431 58-431 173 0 172 201 215 374 258 676 159 776 302 1236 1180 849 1639 2043 4026 2661 5349 57 130 129 374 43 532-345 691-935 1395-1697 1395-259 0-647-115-891-172-58-15-159 72-159 129 0 173-14 520 216 750 173 187 359 288 734 288zm11274-6344c-403 0-834 72-1065 172-201 75-589 276-934 506-58 43-115-14-115-72 14-230 14-506 43-736 0-57-115-172-158-172-29 0-144 57-288 129-244 144-877 448-1093 506-57 14-201 187-201 259s172 201 532 460c43 29 115 129 115 736 14 850 0 1931 0 2912 0 1471-14 2650-43 3125-58 1035-130 1165-892 1323-230 43-333 158-333 216 0 129 218 187 434 187 431 0 575-43 920-43 561 0 1395 71 1712 71 186 0 373-71 373-187 0-100-115-172-402-258-547-173-647-346-691-719-43-403-57-993-57-2388 0-71 57-186 101-186 187 28 474 57 805 57 647 0 1496-117 2287-736 920-690 1222-1754 1222-2473 0-791-331-1496-676-1884-431-475-1079-805-1596-805zm-748 733c331 0 920 201 1294 590 590 647 590 1438 590 1754 0 417-259 1510-978 2114-202 173-504 244-662 244-359 0-1049-244-1438-790-100-130-158-374-187-633-57-590-43-2157 29-2589 43-259 115-374 187-431 158-129 561-259 1165-259zm6471-762c-273 0-920 244-1337 546-676 446-1079 849-1079 1266 0 72 86 187 173 187 72 0 791-360 934-475 29-29 87-115 87-158-29-288 14-546 100-590 101-71 288-158 590-158 705 0 1122 604 1122 964 0 172-15 1049-29 1179 0 86-86 158-417 259-317 100-1467 417-1683 503-215 101-431 173-575 360-158 201-273 474-273 733 0 719 489 1340 992 1340 72 0 417-29 575-86 144-44 762-290 1295-664 28-15 86 43 86 57 172 532 590 722 920 722 647 0 1294-621 1294-895 0-14 0-100-43-143-28-43-43-72-86-43-158 115-489 215-547 215-115 0-575-57-575-719 0-158 58-1970 58-2531 0-604-72-891-288-1193-215-317-575-676-1294-676zm-431 5206c-302 0-906-231-906-863 0-345 143-446 287-547 389-187 1079-431 1481-431 58 0 115 72 115 115 0 287 0 777-28 1122 0 28-87 302-173 359-273 144-561 245-776 245zm4932-331c72-388 863-2488 1165-3279 43-86 115-57 129 0 317 791 964 2114 1395 3336 58 158 58 389-345 504-187 57-359 129-359 230 0 100 158 189 359 189s733-45 1093-45c187 0 935 45 1093 45 187 0 331-103 331-160 0-115-130-187-331-245-403-129-575-345-690-575-705-1539-1453-3164-2028-4674-43-100-129-215-158-215-101 0-187 86-288 215-100 144-259 360-345 547-43 129-72 287-129 445-158 461-1179 3078-1496 3682-187 316-331 431-719 561-230 72-345 158-345 230 0 86 101 189 360 189 330 0 560-45 848-45 374 0 474 45 820 45 172 0 345-45 345-175 0-86-115-158-230-216-345-172-561-215-475-589zm-45982 7539c-557 0-1878 499-2729 1115-1379 910-2201 1732-2201 2583 0 147 176 381 352 381 147 0 1614-733 1908-968 59-59 176-235 176-323-59-587 29-1115 205-1203 206-147 587-323 1203-323 1438 0 2290 1233 2290 1966 0 352-30 2143-59 2407 0 176-176 323-851 528-646 205-2994 851-3434 1027-440 206-880 352-1173 734-323 410-558 968-558 1496 0 1468 998 2734 2025 2734 146 0 851-58 1174-176 293-88 1555-592 2641-1355 58-29 176 89 176 118 352 1086 1203 1472 1878 1472 1321 0 2641-1267 2641-1824 0-30 0-206-88-294-59-88-88-146-176-88-323 235-998 440-1115 440-235 0-1174-117-1174-1467 0-323 117-4020 117-5165 0-1232-146-1819-587-2435-440-646-1173-1380-2641-1380zm-880 10623c-616 0-1849-469-1849-1760 0-704 294-910 587-1115 792-382 2201-881 3023-881 117 0 234 147 234 235 0 587 0 1585-58 2289 0 59-176 616-352 734-558 293-1145 498-1585 498zM52654 7472c30-352-117-587-381-382-616 558-1497 822-3140 1321-2612 792-4402 2465-5282 3639-1820 2465-2524 5253-2524 8246 0 4461 1937 7840 5722 7840 3111 0 5752-2176 5752-6461 0-3228-1731-5752-5077-5752-1408 0-2876 617-3844 1614-117 147-264 59-293-29-30-381-59-1027-59-1174 0-3991 1937-4695 3844-5077 1321-264 2113-499 2876-675 323-88 646-235 880-411 822-616 1468-1731 1526-2699zm-2347 14878c-30 3434-1262 4901-2788 4901-2436 0-3727-3375-3727-6427 0-1232 176-2054 704-2641 646-792 1526-1262 2495-1262 2582 0 3316 3199 3316 5429zm9566-6427c-557 0-1878 499-2729 1115-1379 910-2201 1732-2201 2583 0 147 176 381 352 381 147 0 1615-733 1908-968 59-59 176-235 176-323-59-587 29-1115 205-1203 206-147 587-323 1204-323 1438 0 2289 1233 2289 1966 0 352-30 2143-59 2407 0 176-176 323-851 528-646 205-2993 851-3434 1027-440 206-880 352-1173 734-323 410-558 968-558 1496 0 1468 998 2734 2025 2734 147 0 851-58 1174-176 293-88 1555-592 2641-1355 59-29 176 89 176 118 352 1086 1203 1472 1878 1472 1321 0 2641-1267 2641-1824 0-30 0-206-88-294-58-88-88-146-176-88-323 235-998 440-1115 440-235 0-1174-117-1174-1467 0-323 118-4020 118-5165 0-1232-147-1819-587-2435-441-646-1174-1380-2642-1380zm-880 10623c-616 0-1849-469-1849-1760 0-704 294-910 587-1115 793-382 2201-881 3023-881 117 0 235 147 235 235 0 587 0 1585-59 2289 0 59-176 616-352 734-558 293-1145 498-1585 498zm7571-10006c0 176 176 352 617 498 792 235 997 265 1027 1204 58 352 29 1261 29 3903 0 2993-29 3756-176 4167-117 323-411 499-1086 675-469 117-733 293-733 528 0 205 352 357 674 357 793 0 1292-93 2260-93 969 0 1409 93 2142 93 382 0 734-152 734-357 0-176-147-323-616-470-587-176-998-322-1057-1203-58-792-88-2171-88-3521 0-59 30-118 88-118 587 30 998 88 1732 1174 909 1321 1614 2318 2347 3258 734 939 1585 1413 3228 1413 969 0 1468-235 1468-504 0-205-264-293-411-323-734-146-1350-469-1819-909-1116-1115-3375-4520-3816-5165-29-59-58-176 0-235 235-323 764-968 1204-1673 587-997 1262-1496 2025-1496 352 0 557 58 968 205 381 147 822-264 822-821 0-646-470-1057-1233-1057-1144 0-2083 851-2700 1849-675 1086-1056 1790-1643 2582-440 675-1086 998-2084 998-117 0-176-29-176-176 0-1673 59-3081 59-3316 29-352 88-734 998-969 469-117 645-322 645-469 0-176-176-323-733-323-528 0-1057 88-1996 88-645 0-1819-88-2025-88-410 0-675 147-675 294z"/></g></g></svg>