<?xml version="1.0" encoding="UTF-8"?>
<!DOCTYPE svg PUBLIC "-//W3C//DTD SVG 1.1//EN" "http://www.w3.org/Graphics/SVG/1.1/DTD/svg11.dtd">
<!-- Creator: CorelDRAW X8 -->
<svg xmlns="http://www.w3.org/2000/svg" xml:space="preserve" width="75px" height="75px" version="1.1" style="shape-rendering:geometricPrecision; text-rendering:geometricPrecision; image-rendering:optimizeQuality; fill-rule:evenodd; clip-rule:evenodd"
viewBox="0 0 1514 1507"
 xmlns:xlink="http://www.w3.org/1999/xlink">
 <defs>
  <style type="text/css">
   <![CDATA[
    .fil0 {fill:#898989}
   ]]>
  </style>
 </defs>
 <g id="Слой_x0020_1">
  <metadata id="CorelCorpID_0Corel-Layer"/>
  <path class="fil0" d="M1339 175c233,232 233,610 0,842 -221,222 -573,232 -808,33l-442 442c-20,20 -53,20 -74,0l0 0c-20,-20 -20,-54 0,-74l443 -443c-193,-234 -181,-581 38,-800 233,-233 610,-233 843,0zm-64 64c197,197 197,517 0,714 -197,197 -517,197 -714,0 -198,-197 -198,-517 0,-714 197,-198 517,-198 714,0z"/>
 </g>
</svg>
