<svg xmlns="http://www.w3.org/2000/svg" width="75" height="75" viewBox="0 0 1514 1507" shape-rendering="geometricPrecision" text-rendering="geometricPrecision" image-rendering="optimizeQuality" fill-rule="evenodd" clip-rule="evenodd"><defs><style>.fil0{fill:#898989}</style></defs><path class="fil0" d="M1339 175c233 232 233 610 0 842-221 222-573 232-808 33L89 1492c-20 20-53 20-74 0-20-20-20-54 0-74l443-443c-193-234-181-581 38-800 233-233 610-233 843 0zm-64 64c197 197 197 517 0 714s-517 197-714 0c-198-197-198-517 0-714 197-198 517-198 714 0z" id="Слой_x0020_1"/></svg>